PathFileType	4	(X/Y/Z)	./resultDataOpenSim/trcMotMarkerGrf/sub10/qtm-04-05.trc
DataRate	CameraRate	NumFrames	NumMarkers	Units	OrigDataRate	OrigDataStartFrame	OrigNumFrames
250.000000	250.000000	6	24	m	250.000000	432	493
Frame#	Time	L.Toe.Tip			R.Toe.Tip			L.Ankle.Lat			R.Ankle.Lat			L.Ankle.Med			R.Ankle.Med			L.Heel			R.Heel			L.Knee.Lat			R.Knee.Lat			L.Knee.Med			R.Knee.Med			L.Thigh.Upper			R.Thigh.Upper			L.ASIS			R.ASIS			V.Sacral			L.Acromium			R.Acromium			C7			L.Elbow			R.Elbow			L.Wrist.Lat			R.Wrist.Lat
		X1	Y1	Z1	X2	Y2	Z2	X3	Y3	Z3	X4	Y4	Z4	X5	Y5	Z5	X6	Y6	Z6	X7	Y7	Z7	X8	Y8	Z8	X9	Y9	Z9	X10	Y10	Z10	X11	Y11	Z11	X12	Y12	Z12	X13	Y13	Z13	X14	Y14	Z14	X15	Y15	Z15	X16	Y16	Z16	X17	Y17	Z17	X18	Y18	Z18	X19	Y19	Z19	X20	Y20	Z20	X21	Y21	Z21	X22	Y22	Z22	X23	Y23	Z23	X24	Y24	Z24

432	1.724	1.6422888	0.11693365	-0.17706646	0.96106497	0.038271194	-0.00082738534	1.5096207	0.093704672	-0.21669671	0.82317488	0.071276695	0.029950264	1.5077426	0.11447393	-0.13527086	0.85013678	0.092787337	-0.054379975	1.4600672	0.041328197	-0.17719062	0.76896068	0.055408263	-0.017307168	1.360814	0.45829584	-0.2200157	1.001625	0.43326313	0.068709139	1.3794398	0.42824974	-0.10034986	1.0284689	0.43308089	-0.057991971	1.2069416	0.80942857	-0.25003583	1.0779978	0.84075218	0.11930593	1.2427983	0.92059381	-0.16875658	1.1713401	0.92781869	0.072574372	1.016846	0.92116424	-0.10654819	1.1485815	1.391462	-0.21924585	1.1157072	1.3909231	0.096535155	1.053543	1.4173633	-0.072722939	0.99011966	1.1015504	-0.30788599	1.1997178	1.0486171	0.17944714	1.023089	0.86805239	-0.35925024	1.4492051	1.0262627	0.1496259
433	1.728	1.64972	0.11750864	-0.17728486	0.96116464	0.038283707	-0.00081722219	1.5171636	0.093572357	-0.21671735	0.82367812	0.072569171	0.029973893	1.5151035	0.1141676	-0.13531006	0.85085663	0.093752671	-0.054456457	1.4678985	0.040761394	-0.17721023	0.76935773	0.057166268	-0.017306224	1.3667309	0.45773985	-0.22002692	1.0052592	0.43288543	0.068304444	1.3853952	0.42774977	-0.10021249	1.0327593	0.43225988	-0.058252808	1.2137738	0.80839337	-0.25019985	1.0825962	0.8399538	0.11856778	1.2490397	0.91955991	-0.16873846	1.1767134	0.92681391	0.072321545	1.0222771	0.92026489	-0.10791946	1.153663	1.3906459	-0.21999353	1.1215293	1.3898427	0.095861917	1.0590265	1.4163738	-0.073253725	0.9943911	1.100915	-0.30809882	1.2056161	1.047441	0.1788188	1.02699	0.86749515	-0.35984263	1.4555229	1.0263412	0.14751379
434	1.732	1.6565944	0.11768121	-0.17762647	0.96127709	0.038300403	-0.00080178491	1.5240604	0.093158433	-0.21664475	0.82432359	0.073916221	0.029972555	1.5219686	0.11369348	-0.13525322	0.85163123	0.094765956	-0.054468396	1.4750369	0.040047358	-0.17701388	0.76979902	0.059022702	-0.017276956	1.372699	0.45715588	-0.22004742	1.0090061	0.4325127	0.067922368	1.3913838	0.42726547	-0.10009705	1.0371119	0.4314555	-0.058482581	1.2206829	0.80736425	-0.25036424	1.0872567	0.83919778	0.11785528	1.2552689	0.91851276	-0.16868132	1.1822318	0.92578146	0.072002566	1.0279263	0.9194043	-0.10923576	1.1587694	1.3898681	-0.22077193	1.1273755	1.3887979	0.095161242	1.064543	1.4154195	-0.073816108	0.99872441	1.1002768	-0.30830455	1.211541	1.0462747	0.17802638	1.0310109	0.86694412	-0.36041439	1.4617492	1.0263283	0.14541723
435	1.736	1.6629139	0.11745486	-0.1780896	0.96140686	0.038319046	-0.00078071162	1.5303485	0.092461313	-0.21649418	0.82505703	0.075317681	0.029965381	1.5283421	0.11304658	-0.1351004	0.85246213	0.095839522	-0.054436905	1.4814843	0.039180165	-0.17662793	0.77027846	0.060978759	-0.017199016	1.3787612	0.45655828	-0.22007873	1.0128703	0.4321504	0.067573524	1.3973899	0.42678913	-0.10002415	1.0415366	0.43069073	-0.058681974	1.2276553	0.80635564	-0.25053877	1.0919361	0.83848441	0.11714026	1.2614954	0.9174474	-0.16856886	1.1878036	0.92476416	0.071673271	1.0338308	0.9185775	-0.11050557	1.1639098	1.3891281	-0.22157119	1.1332385	1.3877877	0.094444589	1.0700893	1.4144942	-0.074400884	1.0031088	1.0996482	-0.30848486	1.2176124	1.0451109	0.17687979	1.0351496	0.86640396	-0.36095867	1.4678847	1.0262276	0.14333885
436	1.74	1.6686483	0.1168355	-0.1786541	0.96155814	0.038338256	-0.00075569049	1.5360726	0.091487743	-0.21628577	0.82581859	0.076786498	0.029982762	1.5342127	0.11222	-0.13485356	0.85334878	0.096988214	-0.054368323	1.4872695	0.038154929	-0.17604665	0.770803	0.063038159	-0.017079243	1.3849303	0.4559666	-0.22011258	1.0168542	0.43180157	0.067250187	1.4034229	0.4263265	-0.10000737	1.0460464	0.42996478	-0.058863211	1.2346698	0.80539138	-0.25073886	1.0966403	0.83781836	0.11641834	1.2677289	0.91637034	-0.16842071	1.1933416	0.92380895	0.071395382	1.0399172	0.91778777	-0.1117407	1.1690892	1.3884265	-0.22238786	1.1391174	1.3868153	0.093715342	1.0756619	1.4135923	-0.075004091	1.0075547	1.0990367	-0.3086312	1.2237593	1.0439393	0.17545239	1.0394072	0.86587826	-0.3614709	1.4739359	1.0260468	0.14129043
437	1.744	1.673781	0.11582377	-0.1792608	0.96173261	0.038358333	-0.00072739065	1.5412473	0.09025893	-0.21602598	0.82659678	0.078334591	0.030047742	1.5395691	0.11120552	-0.13451882	0.85429563	0.098221565	-0.054262286	1.4924477	0.036968168	-0.17524112	0.77139355	0.065200642	-0.016950336	1.3911793	0.45539699	-0.22012613	1.0209454	0.43146566	0.066943714	1.4095168	0.42590072	-0.10004867	1.0506422	0.42926025	-0.059037653	1.2416973	0.80450294	-0.25097618	1.1014945	0.83717152	0.11569562	1.273981	0.91529337	-0.16826599	1.198841	0.92293007	0.071181657	1.0461259	0.91703754	-0.11293935	1.174304	1.3877626	-0.2232301	1.1450179	1.3858844	0.092966945	1.0812621	1.4127175	-0.07562878	1.0120753	1.0984337	-0.30874132	1.2298458	1.0427514	0.17391742	1.0437919	0.86536526	-0.36195969	1.4799077	1.0257806	0.13927708
